<svg width="206" height="41" fill="none" xmlns="http://www.w3.org/2000/svg"><g filter="url(#a)"><path d="M0 6a6 6 0 0 1 6-6h42v40H6a6 6 0 0 1-6-6V6z" fill="#2F363D"/><path fill-rule="evenodd" clip-rule="evenodd" d="M24 8.75c-6.354 0-11.5 5.146-11.5 11.5 0 5.089 3.292 9.387 7.863 10.91.575.101.79-.244.79-.546 0-.273-.014-1.178-.014-2.142-2.889.532-3.636-.704-3.866-1.35-.13-.331-.69-1.352-1.18-1.625-.402-.216-.977-.748-.014-.762.906-.014 1.553.834 1.768 1.179 1.035 1.74 2.689 1.25 3.35.948.1-.747.402-1.25.733-1.538-2.559-.287-5.232-1.279-5.232-5.678 0-1.25.445-2.285 1.178-3.09-.115-.288-.517-1.467.115-3.048 0 0 .963-.302 3.163 1.179a10.67 10.67 0 0 1 2.875-.388c.977 0 1.955.13 2.875.388 2.2-1.495 3.162-1.179 3.162-1.179.633 1.581.23 2.76.115 3.048.733.805 1.179 1.825 1.179 3.09 0 4.413-2.688 5.39-5.247 5.678.417.36.776 1.05.776 2.128 0 1.538-.014 2.774-.014 3.162 0 .302.216.662.79.547 4.543-1.524 7.835-5.837 7.835-10.911 0-6.354-5.146-11.5-11.5-11.5z" fill="#fff"/><path d="M6 .5h41.5v39H6A5.5 5.5 0 0 1 .5 34V6A5.5 5.5 0 0 1 6 .5z" stroke="#444D56"/></g><g filter="url(#b)"><path d="M47 0h153a6 6 0 0 1 6 6v28a6 6 0 0 1-6 6H47V0z" fill="#24292E"/><path d="M69.974 15.136H68.21v6.466c0 2.154 1.559 3.644 4.054 3.644s4.053-1.49 4.053-3.643v-6.467h-1.763v6.31c0 1.346-.827 2.262-2.29 2.262s-2.29-.916-2.29-2.263v-6.31zm8.272 4.525c0 1.121.676 1.777 2.112 2.106l1.326.307c.71.164 1.032.438 1.032.861 0 .568-.594.958-1.449.958-.848 0-1.374-.342-1.538-.896h-1.675c.13 1.347 1.306 2.153 3.172 2.153s3.186-.95 3.186-2.378c0-1.101-.664-1.71-2.092-2.038L81 20.44c-.752-.177-1.107-.444-1.107-.868 0-.553.581-.93 1.353-.93.794 0 1.293.342 1.416.869h1.592c-.123-1.347-1.237-2.126-3.014-2.126-1.764 0-2.994.936-2.994 2.276zm12.605 3.295c-.246.56-.827.875-1.668.875-1.114 0-1.832-.793-1.873-2.058v-.088h5.223v-.54c0-2.345-1.278-3.76-3.411-3.76-2.167 0-3.514 1.51-3.514 3.91 0 2.392 1.326 3.855 3.527 3.855 1.764 0 3.015-.847 3.323-2.194H90.85zm-1.736-4.252c1.019 0 1.689.718 1.723 1.853h-3.52c.074-1.121.785-1.853 1.797-1.853zm9.093-3.008v1.88h-1.183v1.32h1.183v4.122c0 1.442.683 2.016 2.399 2.016.328 0 .643-.027.889-.075V23.66c-.205.02-.335.034-.575.034-.71 0-1.025-.335-1.025-1.08v-3.719h1.6v-1.319h-1.6v-1.88h-1.688zM103.109 25h1.696v-4.34c0-1.095.622-1.826 1.736-1.826.984 0 1.504.588 1.504 1.743V25h1.695v-4.82c0-1.777-.97-2.788-2.57-2.788-1.114 0-1.914.506-2.27 1.346h-.123v-4.101h-1.668V25zm9.352-8.723a1.01 1.01 0 0 0 1.019-1.005c0-.553-.458-1.004-1.019-1.004-.553 0-1.011.45-1.011 1.005 0 .56.458 1.004 1.011 1.004zm-.84 8.723h1.688v-7.472h-1.688V25zm3.473-5.339c0 1.121.676 1.777 2.112 2.106l1.326.307c.711.164 1.032.438 1.032.861 0 .568-.594.958-1.449.958-.848 0-1.374-.342-1.538-.896h-1.675c.13 1.347 1.306 2.153 3.172 2.153s3.186-.95 3.186-2.378c0-1.101-.664-1.71-2.092-2.038l-1.32-.294c-.752-.177-1.107-.444-1.107-.868 0-.553.581-.93 1.354-.93.793 0 1.292.342 1.415.869h1.592c-.123-1.347-1.237-2.126-3.014-2.126-1.764 0-2.994.936-2.994 2.276zm11.854-3.965v1.88h-1.183v1.32h1.183v4.122c0 1.442.683 2.016 2.399 2.016.328 0 .643-.027.889-.075V23.66c-.205.02-.335.034-.574.034-.711 0-1.026-.335-1.026-1.08v-3.719h1.6v-1.319h-1.6v-1.88h-1.688zm9.639 7.26c-.246.56-.827.875-1.668.875-1.114 0-1.832-.793-1.873-2.058v-.088h5.223v-.54c0-2.345-1.279-3.76-3.412-3.76-2.167 0-3.513 1.51-3.513 3.91 0 2.392 1.326 3.855 3.527 3.855 1.764 0 3.015-.847 3.322-2.194h-1.606zm-1.736-4.252c1.018 0 1.688.718 1.722 1.853h-3.52c.075-1.121.786-1.853 1.798-1.853zm4.97 6.296h1.695v-4.546c0-.93.622-1.634 1.463-1.634.834 0 1.353.506 1.353 1.333V25h1.648v-4.669c0-.854.581-1.51 1.463-1.51.909 0 1.367.485 1.367 1.455V25h1.688v-5.14c0-1.552-.902-2.475-2.399-2.475-1.039 0-1.9.533-2.27 1.346h-.116c-.314-.827-1.032-1.346-2.064-1.346-.991 0-1.757.506-2.078 1.346h-.117v-1.203h-1.633V25zm16.611-7.595c-1.025 0-1.893.513-2.324 1.36h-.116v-1.237h-1.634v9.953h1.696v-3.616h.116c.383.793 1.21 1.258 2.283 1.258 1.887 0 3.062-1.483 3.062-3.855 0-2.393-1.189-3.863-3.083-3.863zm-.533 6.31c-1.155 0-1.873-.937-1.88-2.447.007-1.511.732-2.448 1.887-2.448 1.162 0 1.866.916 1.866 2.448 0 1.53-.697 2.447-1.873 2.447zM161.136 25h1.695V14.637h-1.695V25zm5.749.123c.978 0 1.798-.424 2.215-1.148h.116V25h1.634v-5.106c0-1.58-1.08-2.51-3.001-2.51-1.777 0-3.014.835-3.151 2.14h1.599c.158-.512.691-.793 1.47-.793.916 0 1.408.417 1.408 1.163v.642l-1.927.116c-1.819.103-2.837.889-2.837 2.229 0 1.367 1.032 2.242 2.474 2.242zm.499-1.306c-.752 0-1.292-.376-1.292-1.018 0-.622.445-.97 1.395-1.032l1.688-.117v.609c0 .889-.765 1.558-1.791 1.558zm5.9-8.12v1.88h-1.182v1.318h1.182v4.123c0 1.442.684 2.016 2.4 2.016.328 0 .642-.027.888-.075V23.66c-.205.02-.335.034-.574.034-.711 0-1.025-.335-1.025-1.08v-3.719h1.599v-1.319h-1.599v-1.88h-1.689zm9.639 7.26c-.246.56-.827.874-1.668.874-1.114 0-1.832-.793-1.873-2.058v-.088h5.223v-.54c0-2.345-1.278-3.76-3.411-3.76-2.167 0-3.514 1.51-3.514 3.91 0 2.392 1.326 3.855 3.527 3.855 1.764 0 3.015-.847 3.323-2.194h-1.607zm-1.736-4.253c1.018 0 1.688.718 1.723 1.853h-3.521c.075-1.121.786-1.853 1.798-1.853z" fill="#fff"/><path d="M47.5.5H200a5.5 5.5 0 0 1 5.5 5.5v28a5.5 5.5 0 0 1-5.5 5.5H47.5V.5z" stroke="#444D56"/></g><defs><filter id="a" x="0" y="0" width="48" height="41" filterUnits="userSpaceOnUse" color-interpolation-filters="sRGB"><feFlood flood-opacity="0" result="BackgroundImageFix"/><feColorMatrix in="SourceAlpha" values="0 0 0 0 0 0 0 0 0 0 0 0 0 0 0 0 0 0 127 0" result="hardAlpha"/><feOffset dy="1"/><feColorMatrix values="0 0 0 0 0.105882 0 0 0 0 0.121569 0 0 0 0 0.137255 0 0 0 0.1 0"/><feBlend in2="BackgroundImageFix" result="effect1_dropShadow"/><feBlend in="SourceGraphic" in2="effect1_dropShadow" result="shape"/></filter><filter id="b" x="47" y="0" width="159" height="41" filterUnits="userSpaceOnUse" color-interpolation-filters="sRGB"><feFlood flood-opacity="0" result="BackgroundImageFix"/><feColorMatrix in="SourceAlpha" values="0 0 0 0 0 0 0 0 0 0 0 0 0 0 0 0 0 0 127 0" result="hardAlpha"/><feOffset dy="1"/><feColorMatrix values="0 0 0 0 0.105882 0 0 0 0 0.121569 0 0 0 0 0.137255 0 0 0 0.04 0"/><feBlend in2="BackgroundImageFix" result="effect1_dropShadow"/><feBlend in="SourceGraphic" in2="effect1_dropShadow" result="shape"/></filter></defs></svg>